<?xml version="1.0" encoding="utf-8"?>
<!-- Generator: Adobe Illustrator 26.2.1, SVG Export Plug-In . SVG Version: 6.00 Build 0)  -->
<svg version="1.1" id="Layer_1" xmlns="http://www.w3.org/2000/svg" xmlns:xlink="http://www.w3.org/1999/xlink" x="0px" y="0px"
	 viewBox="0 0 512 512" style="enable-background:new 0 0 512 512;" xml:space="preserve">
<style type="text/css">
	.st0{fill:#414042;}
	.st1{fill:#58595B;}
	.st2{fill:#FFFFFF;}
</style>
<g>
	<rect x="3" y="3" class="st0" width="506" height="506"/>
	<path class="st1" d="M506,6v500H6V6H506 M512,0H0v512h512V0L512,0z"/>
</g>
<g>
	<g>
		<path class="st2" d="M235.58,156.35h-95.7v84.77h88.53v25.81h-88.53v108.52h-28.71V130.37h124.41V156.35z"/>
		<path class="st2" d="M418.95,294.26H295.22c0.45,19.71,5.67,34.89,15.64,45.54c9.97,10.65,23.95,15.98,41.96,15.98
			c7.86,0,15.75-1.17,23.67-3.5c7.92-2.33,15.75-6.07,23.5-11.19l12.99,20c-9.91,6.38-19.82,11.05-29.74,14.01
			c-9.91,2.96-20.79,4.44-32.64,4.44c-26.43,0-47.06-7.86-61.87-23.58c-14.81-15.72-22.28-37.65-22.39-65.8
			c-0.12-28.14,7.32-50.81,22.3-68.02c14.98-17.2,34.44-25.81,58.36-25.81c22.79,0,40.47,7.43,53.06,22.3
			c12.59,14.87,18.88,35.46,18.88,61.78V294.26z M390.24,271.36c-0.12-16.18-4.05-28.8-11.79-37.85
			c-7.75-9.06-18.4-13.59-31.96-13.59c-13.33,0-24.64,4.64-33.92,13.93c-9.29,9.29-14.95,21.79-17,37.51H390.24z"/>
	</g>
</g>
<g>
	<g>
		<path class="st2" d="M20.22,90.58v-3.47c0-2.99,0.33-5.63,0.98-7.91c0.65-2.28,1.73-4.44,3.22-6.49c1.5-2.05,3.46-4.1,5.88-6.15
			c2.42-2.05,5.4-4.36,8.91-6.93c2.54-1.82,4.66-3.56,6.37-5.22s3.08-3.32,4.13-4.98c0.91-1.37,1.62-2.95,2.12-4.74
			c0.5-1.79,0.76-3.63,0.76-5.52c0-3.84-1.11-6.97-3.32-9.38c-2.21-2.41-5.26-3.61-9.13-3.61c-3.12,0-6.06,0.59-8.81,1.76
			c-2.75,1.17-5.31,2.98-7.69,5.42l-4.88-4.69c3.06-3.16,6.36-5.49,9.91-7.01c3.55-1.51,7.52-2.27,11.91-2.27
			c6.58,0,11.58,1.92,15.01,5.76c3.43,3.84,5.15,8.28,5.15,13.33c0,2.57-0.35,5.05-1.05,7.45c-0.7,2.39-1.68,4.52-2.95,6.37
			c-1.3,2.02-2.9,3.96-4.79,5.81c-1.89,1.86-4.13,3.74-6.74,5.66c-3.29,2.28-6,4.23-8.13,5.86c-2.13,1.63-3.82,3.14-5.05,4.54
			c-1.27,1.43-2.17,2.86-2.69,4.3c-0.52,1.43-0.78,3.08-0.78,4.93h34.86v7.18H20.22z"/>
		<path class="st2" d="M117.24,68.37c0,7.1-2.09,12.78-6.27,17.04c-4.18,4.26-9.43,6.4-15.75,6.4c-7,0-12.49-2.77-16.48-8.3
			c-3.99-5.53-5.98-13.44-5.98-23.73c0-5.01,0.48-10.11,1.44-15.28c0.96-5.18,2.95-9.91,5.98-14.21c2.7-3.81,5.75-6.58,9.16-8.3
			c3.4-1.73,7.4-2.59,11.99-2.59c2.47,0,4.88,0.38,7.23,1.15c2.34,0.77,4.64,1.96,6.88,3.59l-4,5.52c-1.63-1.2-3.3-2.08-5-2.64
			c-1.71-0.55-3.57-0.83-5.59-0.83c-2.9,0-5.5,0.61-7.81,1.83c-2.31,1.22-4.49,3.23-6.54,6.03c-1.76,2.41-3.1,5.39-4.03,8.94
			c-0.93,3.55-1.39,7.47-1.39,11.77h0.2c1.99-2.67,4.39-4.66,7.2-5.98c2.82-1.32,5.74-1.98,8.76-1.98c6.05,0,10.9,2.02,14.55,6.05
			C115.42,56.88,117.24,62.05,117.24,68.37z M109.04,68.95c0-5.11-1.19-8.95-3.56-11.52c-2.38-2.57-5.45-3.86-9.23-3.86
			c-4.49,0-8.06,1.38-10.72,4.15c-2.65,2.77-3.98,6.09-3.98,9.96c0,5.08,1.29,9.23,3.88,12.45s5.96,4.83,10.13,4.83
			c4.04,0,7.29-1.38,9.77-4.13C107.8,78.09,109.04,74.13,109.04,68.95z"/>
	</g>
</g>
</svg>
